<?xml version="1.0" standalone="no"?>
<!DOCTYPE svg PUBLIC "-//W3C//DTD SVG 20010904//EN"
 "http://www.w3.org/TR/2001/REC-SVG-20010904/DTD/svg10.dtd">
<svg version="1.0" xmlns="http://www.w3.org/2000/svg"
 width="2134.000000pt" height="2134.000000pt" viewBox="0 0 2134.000000 2134.000000"
 preserveAspectRatio="xMidYMid meet">
<metadata>
Created by potrace 1.14, written by Peter Selinger 2001-2017
</metadata>
<g transform="translate(0.000000,2134.000000) scale(0.100000,-0.100000)"
fill="#000000" stroke="none">
<path d="M1634 15003 c3 -10 44 -182 91 -383 l85 -365 0 -4187 0 -4188 680 0
680 0 -3 3243 -3 3242 -27 270 c-15 149 -27 281 -26 295 0 14 54 -137 119
-334 76 -230 543 -1507 1297 -3543 l1178 -3183 466 0 465 0 1130 3133 c621
1722 1191 3317 1267 3542 75 226 135 390 132 365 -11 -103 -35 -395 -45 -530
-6 -92 -10 -1309 -10 -3322 l0 -3178 845 0 845 0 0 4570 0 4570 -1102 0 -1103
0 -973 -2698 c-535 -1483 -984 -2733 -997 -2778 -46 -150 -104 -407 -169 -751
-69 -359 -107 -535 -112 -518 -2 6 -28 143 -59 305 -74 391 -134 658 -194 867
-32 108 -350 979 -861 2355 -446 1201 -898 2416 -1003 2700 l-192 518 -1203 0
c-1141 0 -1203 -1 -1198 -17z"/>
<path d="M12100 15016 c0 -2 30 -129 66 -282 36 -154 76 -330 90 -391 l24
-113 0 -4180 0 -4180 860 0 860 0 0 2045 0 2045 1920 0 1920 0 0 -2045 0
-2045 860 0 860 0 0 4575 0 4575 -860 0 -860 0 0 -1910 0 -1910 -1920 0 -1920
0 0 1910 0 1910 -950 0 c-522 0 -950 -2 -950 -4z"/>
</g>
</svg>
